<?xml version="1.0" encoding="UTF-8" standalone="no"?><!DOCTYPE svg PUBLIC "-//W3C//DTD SVG 1.1//EN" "http://www.w3.org/Graphics/SVG/1.1/DTD/svg11.dtd"><svg width="100%" height="100%" viewBox="0 0 36 36" version="1.1" xmlns="http://www.w3.org/2000/svg" xmlns:xlink="http://www.w3.org/1999/xlink" xml:space="preserve" xmlns:serif="http://www.serif.com/" style="fill-rule:evenodd;clip-rule:evenodd;stroke-linejoin:round;stroke-miterlimit:2;"><rect id="Artboard1" x="0" y="0" width="35.556" height="35.556" style="fill:none;"/><path d="M17.778,1.523c9.475,0 17.167,7.284 17.167,16.255c-0,8.971 -7.692,16.254 -17.167,16.254c-9.475,0 -17.167,-7.283 -17.167,-16.254c-0,-8.971 7.692,-16.255 17.167,-16.255Zm-0,5.778c-6.202,-0 -11.39,4.604 -11.39,10.477c0,5.872 5.188,10.477 11.39,10.477c6.202,-0 11.389,-4.605 11.389,-10.477c0,-5.873 -5.187,-10.477 -11.389,-10.477Z" style="fill:#fff;"/><circle cx="13.238" cy="14.66" r="2.674" style="fill:#fff;"/><circle cx="22.32" cy="16.485" r="2.674" style="fill:#fff;"/></svg>