<?xml version="1.0" encoding="utf-8"?>
<!-- Generator: Adobe Illustrator 19.2.1, SVG Export Plug-In . SVG Version: 6.00 Build 0)  -->
<svg version="1.1" id="layer" xmlns="http://www.w3.org/2000/svg" xmlns:xlink="http://www.w3.org/1999/xlink" x="0px" y="0px"
	 viewBox="0 0 652 652" style="enable-background:new 0 0 652 652;" xml:space="preserve">
<style type="text/css">
	.st0{fill:#356074;}
</style>
<path class="st0" d="M-40.6,369.7l190.2-23.4l4.9,40.2l-190.2,23.4L-40.6,369.7z"/>
<path class="st0" d="M152.4,229.4l4.8,40.3L19.8,286l20.4,215.5l161.2-17.8l4.4,40.3L3.7,546.3l-28-295.9L152.4,229.4z M251.6,547.8
	l-55.9-392.7l40.1-5.7l55.9,392.7L251.6,547.8z M352.3,70.6L311.9,73l30,497.6l40.5-2.4L352.3,70.6z M456.7,378.2
	c-7.8,44.8,25.2,90.7,77.7,99.8c52.5,9.1,99-22.9,106.8-67.7c7.8-44.8-25.2-90.7-77.7-99.8C511.1,301.3,464.5,333.4,456.7,378.2z
	 M527.4,517.9c-71.5-12.4-122.8-76.9-110.7-146.7c12.1-69.8,82.2-113.1,153.7-100.7C642,283,693.3,347.4,681.1,417.2
	C669,487,598.9,530.3,527.4,517.9z M514.6,391.4c11.6,0,21-9.4,21-21.1c0-11.6-9.4-21-21-21c-11.6,0-21.1,9.4-21.1,21
	C493.6,382,503,391.4,514.6,391.4z M584.8,405.4c12.5,0,22.6-9.8,22.6-21.8c0-12.1-10.1-21.8-22.6-21.8c-12.5,0-22.6,9.8-22.6,21.8
	C562.2,395.7,572.3,405.4,584.8,405.4z"/>
</svg>
